<svg width="26" height="30" viewBox="0 0 26 30" fill="none" xmlns="http://www.w3.org/2000/svg">
<path d="M12.8845 23.0756C17.4283 23.0756 21.1117 19.3921 21.1117 14.8484C21.1117 10.3046 17.4283 6.62109 12.8845 6.62109C8.34069 6.62109 4.65723 10.3046 4.65723 14.8484C4.65723 19.3921 8.34069 23.0756 12.8845 23.0756Z" stroke="#8F9EC4" stroke-width="0.5" stroke-miterlimit="10"/>
<path d="M25.2429 4.47874C17.6183 5.37643 12.8846 0.994141 12.8846 0.994141C12.8846 0.994141 8.15145 5.37643 0.526551 4.47874C0.526551 4.47874 -1.85303 24.6748 12.8846 29.0309C27.6228 24.6748 25.2429 4.47874 25.2429 4.47874Z" stroke="#8F9EC4" stroke-width="0.5" stroke-miterlimit="10" stroke-linecap="round"/>
<path d="M11.5894 16.1501L16.2131 11.9733C16.3938 11.8087 16.5659 11.6345 16.7635 11.4871C17.2501 11.1291 17.7834 11.1042 18.2297 11.5005C18.3351 11.5805 18.4205 11.6797 18.4804 11.7915C18.5403 11.9034 18.5734 12.0253 18.5774 12.1495C18.5814 12.2736 18.5563 12.3971 18.5037 12.5118C18.4511 12.6266 18.3722 12.7301 18.2722 12.8155C17.7792 13.3132 17.2373 13.7727 16.7125 14.2436C15.3419 15.4801 13.9735 16.7206 12.5945 17.9495C11.8635 18.6022 11.3556 18.6003 10.6247 17.9495C9.84909 17.2661 9.07988 16.5789 8.32554 15.8764C7.7497 15.3404 7.7157 14.8121 8.18955 14.389C8.6634 13.966 9.23925 13.9947 9.83847 14.523C10.4377 15.0514 10.9519 15.5567 11.5894 16.1501Z" fill="#8F9EC4" stroke="#8F9EC4" stroke-width="0.5"/>
</svg>
