<?xml version="1.0" encoding="UTF-8"?>
<svg width="392px" height="254px" viewBox="0 0 392 254" version="1.1" xmlns="http://www.w3.org/2000/svg" xmlns:xlink="http://www.w3.org/1999/xlink">
    <title>7F6CA702-6F91-4431-B2D7-26EF9EEB7974</title>
    <g id="Client-Portal" stroke="none" stroke-width="1" fill="none" fill-rule="evenodd">
        <g id="Client-portal-Access-denied" transform="translate(-525.000000, -171.000000)" fill-rule="nonzero">
            <g id="undraw_Notify_re_65on" transform="translate(525.000000, 171.000000)">
                <path d="M357.314329,253.5 L346,219.45455 C346,219.45455 358.445007,231.86364 358.445007,242.045455 L356.21129,218.5 C356.21129,218.5 362.593344,227.09091 361.955137,240.136365 C361.31693,253.18182 357.314329,253.5 357.314329,253.5 Z" id="Path" fill="#E6E6E6"></path>
                <path d="M116.607185,222.5 L106,189.427275 C106,189.427275 117.667194,201.481819 117.667194,211.37273 L115.573086,188.5 C115.573086,188.5 121.556263,196.845456 120.957941,209.518181 C120.359619,222.190907 116.607185,222.5 116.607185,222.5 Z" id="Path" fill="#E6E6E6"></path>
                <path d="M288,237.567415 C288.018742,259.044653 244.936143,252.438287 192.192953,252.483296 C139.449762,252.528304 97.0187542,259.207628 97,237.730425 C96.9812581,216.253221 140.048096,211.545337 192.791286,211.5 C245.534476,211.45531 287.981246,216.090177 288,237.567415 Z" id="Path" fill="#E6E6E6"></path>
                <rect id="Rectangle" fill="#3F3D56" x="0" y="252.5" width="392" height="1"></rect>
                <polygon id="Path" fill="#A0616A" points="251 208.5 244.224452 208.5 241 181.5 251 181.5"></polygon>
                <path d="M237.722424,206.5 L252,206.5 L252,214.5 L230,214.5 L230,213.76816 C230,209.754061 233.457456,206.5 237.722424,206.5 L237.722424,206.5 Z" id="Path" fill="#2F2E41"></path>
                <polygon id="Path" fill="#A0616A" points="301 247.5 294.224452 247.5 291 220.5 301 220.5"></polygon>
                <path d="M288.722424,245.5 L303,245.5 L303,253.5 L281,253.5 L281,252.76816 C281,248.754061 284.457456,245.5 288.722424,245.5 L288.722424,245.5 Z" id="Path" fill="#2F2E41"></path>
                <path d="M332.823304,168.595626 C333.792947,167.423148 334.191942,165.882635 333.912925,164.388618 C333.633907,162.8946 332.70554,161.600551 331.377633,160.854679 L315.28773,95.5 L305,99.9134997 L324.137761,163.10593 C323.004092,165.465106 323.819222,168.296902 326.035129,169.697466 C328.251037,171.098029 331.167311,170.624667 332.823304,168.595626 Z" id="Path" fill="#A0616A"></path>
                <path d="M320.399192,37.2788121 C319.243649,36.0467576 317.61239,35.4000084 315.944353,35.5125909 C314.276315,35.6251733 312.742843,36.4855227 311.75656,37.8621374 L287,40.7609169 L290.765991,50.5 L313.280612,46.2023472 C315.711271,47.7734327 318.909919,47.2420237 320.726056,44.9653945 C322.542194,42.6887652 322.401769,39.3865217 320.399192,37.2788121 L320.399192,37.2788121 Z" id="Path" fill="#A0616A"></path>
                <path d="M280,161.900175 L290.910046,242.5 L304.489084,239.748122 C304.489084,239.748122 302.492142,181.049162 309.281691,173.972839 C316.071241,166.896516 300.548953,154.5 300.548953,154.5 L280,161.900175 Z" id="Path" fill="#2F2E41"></path>
                <path d="M283.941681,139.690031 L279.006479,147.094962 C279.006479,147.094962 241.005421,131.298127 241.005421,156.474541 C241.005421,181.650956 238.830818,198.736674 238.0443,199.916802 C237.257781,201.096931 247.143638,204.159211 251.862866,203.372437 C251.862866,203.372437 257.68486,162.784115 257.291589,160.423838 C257.291589,160.423838 294.568924,178.705797 301.647766,177.132279 C308.726608,175.558761 310.399025,169.988496 311.578814,166.841444 C312.758604,163.694393 311.085294,138.702707 311.085294,138.702707 L287.490092,131.5 L283.941681,139.690031 Z" id="Path" fill="#2F2E41"></path>
                <path d="M284.537336,94.5 L283.11656,92.8184144 C283.11656,92.8184144 267.20386,57.5051376 273.455274,47.9761577 C279.706688,38.4471778 306.985613,37.045859 307.838087,37.6063826 C308.690562,38.1669062 305.801931,45.4444309 307.791003,48.8076168 C307.791003,48.8076168 286.659213,53.326343 285.238422,53.8868715 C283.817632,54.4474 296.187709,75.1617637 296.187709,75.1617637 L294.766938,87.773643 L284.537336,94.5 Z" id="Path" fill="#CCCCCC"></path>
                <path d="M313.243871,77.4789683 C313.243871,77.4789683 298.487741,79.1752474 297.920177,79.1752474 C297.352612,79.1752474 297.068873,75.5 297.068873,75.5 L284.015342,93.3108092 C284.015342,93.3108092 277.584292,144.98214 279.286926,144.134003 C280.989559,143.285865 312.392561,148.156802 312.676341,145.895114 C312.960121,143.633427 312.392561,132.324971 313.243891,131.759543 C314.09522,131.194115 328,96.1379294 328,96.1379294 C328,96.1379294 326.581141,88.7874346 321.757015,86.2430283 C316.932888,83.698622 313.243871,77.4789683 313.243871,77.4789683 Z" id="Path" fill="#CCCCCC"></path>
                <path d="M323.390198,91.5 L327.883236,96.2890018 C327.883236,96.2890018 334.558992,151.319177 330.908399,153.009416 C327.257807,154.699654 320.071119,154.491912 320.071119,154.491912 L313,128.403505 L323.390198,91.5 Z" id="Path" fill="#CCCCCC"></path>
                <circle id="Oval" fill="#A0616A" cx="299" cy="60.5" r="13"></circle>
                <path d="M295.34575,62.6180671 C295.171198,59.9025365 291.788373,59.8094909 289.101416,59.7837793 C286.414459,59.7580677 283.20204,59.8552082 281.681665,57.6114196 C280.67691,56.1285752 280.868828,54.0699901 281.698902,52.4801743 C282.528976,50.8903586 283.894342,49.6676079 285.237574,48.4912978 C288.705478,45.4543645 292.279586,42.4415319 296.443096,40.4976939 C300.606606,38.5538559 305.485669,37.7684221 309.803652,39.3288254 C315.107947,41.245635 322.278388,51.1127154 322.897578,56.7816801 C323.516767,62.4506449 321.279672,68.2297181 317.508662,72.4659449 C313.737651,76.7021716 305.106515,74.9929652 299.674796,76.5 C302.976978,71.7668483 300.800367,63.1665799 295.51033,60.9563187 L295.34575,62.6180671 Z" id="Path" fill="#2F2E41"></path>
                <ellipse id="Oval" fill="#0B1941" cx="179.5" cy="199.5" rx="31.5" ry="31"></ellipse>
                <path d="M158.647503,166.5 C149.794897,166.5 141.771173,161.315179 138.169484,153.266042 L88.5560135,42.0572154 C84.0778184,32.0194315 85.5601192,20.3378964 92.4051274,11.723588 C99.2501356,3.10927959 110.329222,-1.01744416 121.174366,1.007659 C132.019511,3.03276216 140.842527,10.875786 144.085233,21.3737633 L180.011383,137.681447 C182.097163,144.432554 180.84208,151.768224 176.62884,157.45163 C172.4156,163.135035 165.743684,166.492407 158.647523,166.5 L158.647503,166.5 Z" id="Path" fill="#0B1941"></path>
            </g>
        </g>
    </g>
</svg>