<svg width="152" height="40" viewBox="0 0 152 40" fill="none" xmlns="http://www.w3.org/2000/svg">
<path fill-rule="evenodd" clip-rule="evenodd" d="M40.6309 38.8321C40.3079 38.8321 40.0462 38.5708 40.0462 38.2482V15.4745C40.0462 15.1519 40.3079 14.8905 40.6309 14.8905H41.2155C41.5385 14.8905 41.8001 15.1519 41.8001 15.4745V38.2482C41.8001 38.5708 41.5385 38.8321 41.2155 38.8321H40.6309Z" fill="#027DB6"/>
<path fill-rule="evenodd" clip-rule="evenodd" d="M37.1232 32.9927C36.8002 32.9927 36.5386 32.7314 36.5386 32.4088V15.4745C36.5386 15.1519 36.8002 14.8905 37.1232 14.8905H37.7078C38.0308 14.8905 38.2924 15.1519 38.2924 15.4745V32.4088C38.2924 32.7314 38.0308 32.9927 37.7078 32.9927H37.1232Z" fill="#027DB6"/>
<path d="M35.6616 4.07168C35.8078 4.07168 36.2462 4.07168 36.3743 4.07168C36.3743 5.5515 36.3743 7.39626 36.3743 7.58607C36.3743 7.89267 36.45 9.36902 36.45 9.36902C36.45 9.36902 36.5637 10.1867 36.614 10.5728C36.6645 10.9589 36.7402 11.3905 37.1822 11.6062C38.1775 12.0923 40.4534 12.0923 41.4487 11.6062C41.8907 11.3905 41.9664 10.9589 42.017 10.5728C42.0675 10.1867 42.181 9.36902 42.181 9.36902C42.181 9.36902 42.2567 7.89267 42.2567 7.58607C42.2567 7.39626 42.2385 5.5515 42.2385 4.07168C42.3847 4.07168 42.8232 4.07168 42.9693 4.07168C42.9693 3.63542 42.3371 3.35273 42.2385 3.34458C42.2385 2.62151 42.2385 2.32667 42.2385 2.32667C42.2385 2.32667 42.3391 1.092 41.6215 0.605673C40.9398 0.143848 40.6788 0.0378537 40.1991 0H38.4318C37.9521 0.0378537 37.6914 0.143848 37.0097 0.605673C36.2918 1.092 36.3743 2.30535 36.3743 2.30535C36.3743 2.30535 36.3743 2.62151 36.3743 3.34458C36.1001 3.34458 35.6616 3.78085 35.6616 4.07168ZM39.4166 10.9476H39.2146C39.2146 10.9476 37.8004 10.949 37.1822 10.5728L37.2705 8.94882C37.2705 8.94882 37.9647 9.23273 39.2146 9.19866H39.4166C40.6662 9.23273 41.3605 8.94882 41.3605 8.94882L41.4487 10.5728C40.8305 10.949 39.4166 10.9476 39.4166 10.9476ZM39.0883 2.28263H39.5426C39.5426 2.28263 40.0983 2.24856 40.9945 2.4984C41.8907 2.74825 41.7896 3.27063 41.7896 3.27063L41.4993 4.53118C40.8431 4.31542 39.4166 4.31542 39.4166 4.31542H39.2146C39.2146 4.31542 37.7882 4.31542 37.1316 4.53118L36.8414 3.27063C36.8414 3.27063 36.7402 2.74825 37.6365 2.4984C38.533 2.24856 39.0883 2.28263 39.0883 2.28263Z" fill="#027DB6"/>
<path d="M19.0292 7.59076C19.0292 7.10699 18.6366 6.71484 18.1523 6.71484H14.4692C13.9849 6.71484 13.5923 7.10699 13.5923 7.59076V16.3452C13.1574 15.6573 11.8162 14.4988 8.73532 14.4988C3.62462 14.4988 0 18.5175 0 23.8757C0 29.415 3.84209 33.3251 8.91655 33.3251C11.0913 33.3251 12.9036 32.42 13.7373 31.189C13.7373 31.5294 13.7613 31.8859 13.7906 32.1908C13.8315 32.6167 14.1965 32.9268 14.6251 32.9268H18.214C18.7296 32.9268 19.1323 32.4848 19.0998 31.9706C19.0634 31.3943 19.0292 30.6176 19.0292 29.7046V7.59076ZM5.54566 23.9119C5.54566 20.907 7.46671 19.4588 9.60523 19.4588C11.7438 19.4588 13.6648 20.907 13.6648 23.9119C13.6648 26.8807 11.7438 28.4013 9.60523 28.4013C7.46671 28.4013 5.54566 26.8807 5.54566 23.9119Z" fill="#272727"/>
<path d="M34.3601 15.5848C34.3601 15.198 34.1052 14.8543 33.7214 14.8042C33.4671 14.7711 33.1888 14.7521 32.9103 14.7521C31.4604 14.7521 29.1769 15.3314 28.2345 17.3588V15.809C28.2345 15.3253 27.8419 14.9331 27.3576 14.9331H23.7833C23.2989 14.9331 22.9063 15.3253 22.9063 15.809V32.0508C22.9063 32.5346 23.2989 32.9267 23.7833 32.9267H27.5388C28.0232 32.9267 28.4158 32.5346 28.4158 32.0508V25.0704C28.4158 21.4861 30.4093 20.1828 32.6203 20.1828C32.8302 20.1828 33.0453 20.1882 33.266 20.2031C33.8302 20.2413 34.3601 19.8227 34.3601 19.2579V15.5848Z" fill="#272727"/>
<path d="M63.1357 16.1206C63.3541 15.5473 62.9302 14.9333 62.3161 14.9333H58.4147C58.0399 14.9333 57.7067 15.171 57.5851 15.525L53.9464 26.1205L49.9906 15.5037C49.8629 15.1608 49.5349 14.9333 49.1687 14.9333H45.1053C44.4815 14.9333 44.0571 15.5655 44.2942 16.1418L50.9684 32.3835C51.1035 32.7123 51.4238 32.9269 51.7796 32.9269H56.1326C56.4965 32.9269 56.8228 32.7021 56.9522 32.3622L63.1357 16.1206Z" fill="#272727"/>
<path d="M68.9438 21.7761C69.0525 20.4365 70.2124 18.7349 72.5322 18.7349C75.1419 18.7349 76.0843 20.4003 76.1568 21.7761H68.9438ZM76.6321 27.0876C76.2547 27.0876 75.9352 27.3401 75.7309 27.6571C75.1743 28.5202 74.1554 28.7997 72.9309 28.7997C70.7924 28.7997 68.9438 27.3515 68.8351 25.3241H80.744C81.1216 25.3241 81.4192 25.0734 81.4455 24.6973C81.4674 24.3839 81.485 23.9945 81.485 23.6225C81.485 17.8298 78.0416 14.3904 72.4597 14.3904C67.7839 14.3904 63.4706 18.0832 63.4706 23.8759C63.4706 29.922 67.8927 33.4701 72.8584 33.4701C76.9732 33.4701 80.3292 30.5866 81.0997 27.9936C81.2427 27.5125 80.8399 27.0876 80.3374 27.0876H76.6321Z" fill="#272727"/>
<path d="M94.4707 14.9333C94.093 14.9333 93.758 15.1746 93.6388 15.5322L90.2863 25.5774L87.4582 15.5712C87.3515 15.1939 87.0069 14.9333 86.6143 14.9333H82.7453C82.1534 14.9333 81.7313 15.5073 81.9088 16.0715L87.0127 32.3132C87.1273 32.6784 87.4661 32.9269 87.8493 32.9269H92.1535C92.5318 32.9269 92.8674 32.6846 92.986 32.3257L96.6294 21.3053L100.343 32.3304C100.463 32.6869 100.798 32.9269 101.174 32.9269H105.371C105.755 32.9269 106.095 32.677 106.209 32.3103L111.247 16.0685C111.422 15.5049 111 14.9333 110.409 14.9333H106.863C106.47 14.9333 106.125 15.1943 106.019 15.572L103.19 25.6136L99.8725 15.5356C99.7541 15.1762 99.4183 14.9333 99.0394 14.9333H94.4707Z" fill="#272727"/>
<path d="M130.398 15.8652C130.398 15.3814 130.006 14.9893 129.521 14.9893H125.838C125.354 14.9893 124.962 15.3814 124.962 15.8652V16.4445C124.527 15.7566 123.185 14.5981 120.105 14.5981C114.994 14.5981 111.369 18.6167 111.369 23.975C111.369 29.5143 115.211 33.4243 120.286 33.4243C122.461 33.4243 124.273 32.5192 125.106 31.2883C125.106 31.6287 125.13 31.9852 125.16 32.29C125.201 32.716 125.566 33.0261 125.994 33.0261H129.583C130.099 33.0261 130.501 32.584 130.469 32.0699C130.433 31.4935 130.398 30.7169 130.398 29.8039V15.8652ZM116.915 24.0112C116.915 21.0062 118.836 19.5581 120.974 19.5581C123.113 19.5581 125.034 21.0062 125.034 24.0112C125.034 26.98 123.113 28.5005 120.974 28.5005C118.836 28.5005 116.915 26.98 116.915 24.0112Z" fill="#272727"/>
<path d="M140.293 39.8419C140.64 39.8419 140.954 39.6381 141.095 39.3219L151.406 16.1652C151.664 15.5859 151.239 14.9333 150.604 14.9333H146.705C146.35 14.9333 146.03 15.147 145.895 15.4745L142.132 24.5637L137.979 15.4465C137.837 15.134 137.525 14.9333 137.181 14.9333H132.985C132.338 14.9333 131.913 15.6104 132.196 16.1921L139.159 30.5012L135.602 38.6145C135.348 39.1935 135.772 39.8419 136.405 39.8419H140.293Z" fill="#272727"/>
</svg>
